<?xml version="1.0" standalone="no"?>
<!DOCTYPE svg PUBLIC "-//W3C//DTD SVG 20010904//EN"
 "http://www.w3.org/TR/2001/REC-SVG-20010904/DTD/svg10.dtd">
<svg version="1.0" xmlns="http://www.w3.org/2000/svg"
 width="1024.000000pt" height="1024.000000pt" viewBox="0 0 1024.000000 1024.000000"
 preserveAspectRatio="xMidYMid meet">
<metadata>
Created by potrace 1.14, written by Peter Selinger 2001-2017
</metadata>
<g transform="translate(0.000000,1024.000000) scale(0.100000,-0.100000)"
fill="#000000" stroke="none">
<path d="M5613 9565 c0 -8 4 -12 9 -9 5 3 6 10 3 15 -9 13 -12 11 -12 -6z"/>
<path d="M5024 9562 c4 -3 14 -7 22 -8 9 -1 13 0 10 4 -4 3 -14 7 -22 8 -9 1
-13 0 -10 -4z"/>
<path d="M4913 9554 c4 -8 -30 -12 -116 -14 -174 -3 -196 -4 -191 -11 2 -4 -9
-9 -24 -12 -15 -3 -30 0 -34 6 -6 9 -8 9 -8 0 0 -16 -64 -43 -90 -38 -11 2
-18 0 -15 -6 5 -8 -42 -33 -54 -29 -2 1 -7 -3 -11 -10 -4 -6 -14 -12 -23 -14
-9 -1 -25 -10 -36 -20 -11 -10 -25 -15 -32 -10 -7 4 -10 3 -6 -3 9 -14 -19
-37 -33 -28 -6 4 -9 1 -8 -7 2 -7 -3 -12 -10 -10 -6 1 -11 -4 -10 -10 2 -7 -5
-13 -14 -13 -9 0 -20 -4 -25 -9 -5 -5 -2 -6 7 -1 8 5 -3 -10 -24 -33 -22 -22
-44 -38 -49 -35 -6 3 -7 1 -3 -5 4 -7 -5 -28 -20 -47 -23 -30 -29 -33 -43 -23
-14 11 -14 11 -3 -3 10 -14 9 -22 -5 -48 -10 -17 -22 -31 -26 -31 -5 0 -5 -4
-2 -10 3 -5 1 -10 -5 -10 -6 0 -9 -4 -5 -9 3 -5 1 -12 -4 -15 -5 -4 -17 -29
-26 -56 -9 -28 -21 -50 -25 -50 -5 0 -7 -7 -4 -15 4 -9 0 -15 -10 -15 -9 0
-16 -5 -16 -11 0 -5 5 -7 10 -4 12 8 12 2 0 -44 -5 -20 -12 -53 -15 -73 -3
-21 -10 -38 -15 -38 -5 0 -7 9 -5 20 2 12 0 18 -6 14 -6 -3 -8 -9 -5 -12 3 -3
1 -11 -6 -19 -6 -8 -7 -13 -2 -12 27 5 33 -3 31 -44 l-1 -42 -49 -3 c-27 -2
-47 1 -44 5 3 5 -3 9 -13 9 -10 0 -16 -4 -13 -9 6 -10 -37 -5 -56 7 -9 6 -12
5 -8 -1 5 -8 -26 -11 -93 -12 -77 0 -99 3 -94 12 5 9 4 9 -7 0 -15 -15 -63
-18 -54 -4 3 5 1 13 -5 16 -6 4 -9 1 -8 -7 2 -10 -23 -13 -114 -14 -65 0 -115
3 -112 7 2 4 0 11 -6 14 -6 4 -9 1 -8 -7 2 -10 -40 -13 -215 -15 -119 -1 -215
2 -212 7 3 5 1 12 -5 15 -6 4 -9 1 -8 -6 2 -7 -9 -14 -25 -15 -18 -2 -25 1
-21 8 5 7 2 8 -7 2 -21 -13 -62 -13 -78 0 -10 7 -13 8 -8 0 4 -7 -16 -11 -64
-12 -38 -1 -67 3 -64 8 3 5 1 12 -5 15 -6 4 -9 1 -8 -7 2 -10 -23 -13 -114
-14 -65 0 -115 3 -112 7 2 4 0 11 -6 14 -6 4 -9 1 -8 -7 2 -10 -36 -13 -192
-14 -120 -1 -206 -6 -223 -13 -16 -6 -33 -9 -38 -5 -5 3 -9 2 -9 -3 0 -13 -61
-44 -72 -36 -6 3 -8 1 -5 -4 8 -13 -27 -46 -37 -36 -4 5 -6 2 -4 -6 2 -7 -5
-15 -15 -16 -11 -2 -22 -7 -25 -11 -4 -4 1 -4 11 -1 21 8 23 -11 2 -19 -8 -4
-13 -10 -10 -14 3 -5 1 -11 -5 -15 -5 -3 -10 -15 -10 -26 0 -11 -3 -18 -8 -16
-8 6 -11 -22 -12 -97 0 -27 -6 -56 -13 -65 -10 -12 -9 -13 1 -7 10 6 13 1 10
-20 -2 -16 -8 -29 -15 -29 -7 0 -18 -6 -25 -14 -11 -12 -10 -12 2 -5 33 19 38
12 38 -57 1 -51 -2 -68 -11 -62 -9 5 -9 3 -1 -8 16 -22 12 -415 -4 -411 -8 1
-11 -2 -7 -8 3 -6 11 -8 16 -5 14 9 11 -39 -4 -54 -9 -11 -9 -12 0 -7 10 5 12
-4 11 -33 -1 -24 -5 -38 -11 -34 -6 4 -7 1 -1 -8 13 -20 14 -120 1 -112 -6 4
-7 1 -1 -8 14 -23 15 -81 1 -73 -9 6 -9 4 -1 -7 16 -20 16 -121 1 -112 -9 5
-9 3 -1 -8 16 -20 13 -95 -4 -91 -8 1 -11 -2 -7 -8 3 -6 10 -8 15 -5 4 3 7
-12 7 -33 -2 -25 -6 -36 -15 -34 -8 1 -11 -2 -7 -8 3 -6 11 -8 16 -5 14 9 11
-39 -3 -54 -10 -11 -10 -12 -1 -7 10 5 12 -4 11 -33 -1 -24 -5 -38 -11 -34 -6
4 -7 1 -1 -8 13 -20 14 -120 1 -112 -6 4 -7 1 -1 -8 14 -23 15 -81 1 -73 -9 6
-9 4 -1 -7 16 -20 16 -121 1 -112 -9 5 -9 3 -1 -8 16 -20 13 -95 -4 -91 -8 1
-11 -2 -7 -8 3 -6 10 -8 14 -5 16 9 7 -141 -9 -161 -14 -18 -14 -18 2 -5 16
12 18 11 18 -8 0 -15 -4 -20 -12 -15 -10 6 -10 4 -2 -7 13 -17 13 -58 0 -78
-6 -10 -6 -12 2 -7 8 5 12 -1 12 -15 0 -19 -2 -20 -17 -8 -17 13 -17 12 -2 -6
19 -25 19 -66 -1 -91 -14 -18 -14 -18 2 -5 16 12 18 11 18 -8 0 -14 -4 -20
-12 -15 -7 5 -8 3 -2 -7 14 -23 17 -62 3 -53 -8 5 -9 3 -3 -7 5 -8 10 -25 12
-38 3 -22 1 -23 -15 -10 -17 13 -17 13 -2 -6 13 -15 16 -40 15 -102 -1 -94 -2
-93 80 -93 30 0 54 -4 54 -8 0 -5 12 -8 28 -8 36 1 132 -25 132 -36 0 -5 6 -8
13 -6 20 4 67 -12 67 -23 0 -6 4 -8 9 -5 4 3 33 -10 64 -28 57 -34 72 -46 113
-83 13 -12 24 -20 24 -18 0 3 9 -3 19 -12 11 -9 17 -21 14 -26 -3 -6 -1 -7 5
-3 6 3 23 -10 39 -29 15 -20 40 -49 54 -66 14 -16 35 -46 45 -66 10 -21 25
-44 32 -51 7 -8 10 -18 7 -23 -4 -5 -2 -9 3 -9 11 0 32 -45 32 -71 0 -11 -7
-34 -16 -50 -13 -26 -17 -29 -31 -17 -15 12 -15 11 -2 -11 11 -18 11 -25 1
-28 -6 -3 -10 -9 -6 -14 3 -5 0 -9 -5 -9 -6 0 -11 -5 -11 -11 0 -19 -61 -100
-71 -93 -5 3 -8 0 -7 -8 2 -7 -3 -12 -10 -10 -8 1 -11 -2 -6 -9 8 -14 -117
-133 -158 -150 -15 -6 -28 -16 -28 -21 0 -6 -7 -5 -15 2 -13 11 -14 10 -9 -3
4 -12 -12 -24 -68 -50 -100 -47 -110 -50 -120 -35 -6 10 -8 9 -8 -3 0 -11 -15
-20 -46 -28 -26 -7 -49 -10 -52 -7 -2 3 -12 1 -22 -4 -9 -5 -45 -10 -81 -11
l-64 -2 2 -86 c1 -67 -2 -90 -15 -106 -16 -19 -16 -19 0 -6 16 12 18 11 18 -8
0 -15 -4 -20 -12 -15 -10 6 -10 4 -2 -7 13 -17 13 -58 0 -78 -6 -10 -6 -12 2
-7 8 5 12 -1 12 -15 0 -19 -2 -20 -17 -8 -17 13 -17 12 -2 -6 20 -26 24 -82 7
-102 -11 -14 -11 -15 0 -9 10 6 13 1 10 -20 -2 -16 -8 -29 -15 -29 -7 0 -18
-6 -25 -14 -11 -12 -10 -12 2 -5 33 19 38 12 38 -57 1 -51 -2 -68 -11 -62 -9
5 -9 3 -1 -8 16 -20 13 -95 -4 -91 -8 1 -11 -2 -7 -8 3 -6 11 -8 16 -5 14 9
11 -39 -3 -54 -10 -11 -10 -12 -1 -7 10 5 12 -4 11 -33 -1 -24 -5 -38 -11 -34
-6 4 -7 1 -1 -8 13 -20 14 -120 1 -112 -6 4 -7 1 -1 -8 14 -23 15 -81 1 -73
-9 6 -9 4 -1 -7 16 -20 16 -121 1 -112 -9 5 -9 3 -1 -8 16 -20 13 -95 -4 -91
-8 1 -11 -2 -7 -8 3 -6 10 -8 15 -5 4 3 7 -12 7 -33 -2 -25 -6 -36 -15 -34 -8
1 -11 -2 -7 -8 3 -6 11 -8 16 -5 14 9 11 -39 -3 -54 -10 -11 -10 -12 -1 -7 10
5 12 -4 11 -33 -1 -24 -5 -38 -11 -34 -6 4 -7 1 -1 -8 13 -20 14 -120 1 -112
-6 4 -7 1 -1 -8 14 -23 15 -81 1 -73 -9 6 -9 4 -1 -7 16 -20 16 -121 1 -112
-9 5 -9 3 -1 -8 16 -20 13 -95 -4 -91 -8 1 -11 -2 -7 -8 3 -6 10 -8 13 -6 11
6 8 -397 -2 -413 -6 -9 -5 -12 1 -8 6 4 10 -20 10 -62 1 -70 -3 -76 -37 -57
-12 7 -13 7 -2 -5 7 -8 18 -14 25 -14 15 0 18 -75 3 -94 -8 -11 -8 -13 0 -8 7
4 11 -7 12 -30 3 -71 42 -162 94 -214 18 -18 38 -34 43 -34 6 -1 9 -7 7 -14
-1 -7 1 -10 6 -7 5 3 31 -3 57 -13 26 -10 43 -20 36 -22 -7 -3 26 -4 73 -3 63
2 84 -1 79 -9 -5 -9 -3 -9 8 -1 17 13 342 18 334 4 -3 -5 -1 -12 5 -15 6 -4 9
-1 8 6 -2 7 9 14 25 15 18 2 25 -1 21 -8 -5 -7 -2 -8 7 -2 21 13 62 13 78 0
10 -7 13 -8 8 0 -4 7 16 11 64 12 38 1 67 -3 64 -8 -3 -5 -1 -12 5 -15 6 -4 9
-1 8 7 -2 10 23 13 114 14 65 0 115 -3 112 -7 -2 -4 0 -11 6 -14 6 -4 9 -1 8
7 -2 10 40 13 215 15 119 1 215 -2 212 -7 -3 -5 -1 -12 5 -15 6 -4 9 -1 8 6
-2 7 9 14 25 15 18 2 25 -1 21 -8 -5 -7 -2 -8 7 -2 21 13 62 13 78 0 11 -8 13
-8 8 0 -8 14 291 14 312 0 10 -6 12 -6 7 3 -11 18 26 10 42 -9 11 -13 11 -13
6 1 -4 14 2 16 38 15 36 -1 43 -4 44 -21 0 -11 5 -47 10 -80 4 -33 8 -68 7
-77 0 -10 4 -18 8 -18 5 0 9 -9 9 -20 0 -12 7 -34 15 -50 9 -17 15 -31 14 -32
0 -2 4 -16 10 -31 6 -16 8 -33 5 -39 -4 -7 -2 -8 4 -4 10 6 61 -77 63 -101 0
-5 7 -12 15 -16 8 -4 14 -13 14 -18 0 -6 -5 -7 -12 -3 -7 4 -8 3 -4 -5 4 -6
11 -9 16 -6 4 3 25 -16 46 -41 44 -55 76 -88 89 -93 6 -1 9 -7 7 -13 -1 -5 1
-7 6 -4 5 3 24 -8 43 -23 19 -15 49 -36 67 -45 18 -9 30 -21 27 -25 -3 -5 4
-7 15 -4 11 3 20 0 20 -6 0 -6 3 -10 8 -9 8 3 124 -43 132 -52 3 -3 12 -5 20
-5 8 1 29 -3 45 -7 17 -5 55 -11 85 -14 30 -4 61 -12 69 -18 11 -8 13 -8 7 2
-5 8 1 12 19 12 18 0 24 -4 19 -12 -6 -10 -4 -10 7 -1 18 18 190 18 208 0 11
-9 12 -9 7 0 -9 17 332 16 353 -1 12 -8 13 -8 7 2 -5 9 4 12 38 10 29 -1 43
-5 39 -12 -3 -6 0 -5 8 1 17 17 81 17 98 1 10 -11 12 -10 9 2 -2 11 6 15 34
15 20 0 34 3 31 8 -2 4 3 7 12 7 9 0 50 12 91 26 41 14 79 22 86 18 6 -4 8 -3
4 4 -8 13 52 44 67 35 5 -3 7 -1 4 4 -8 12 20 26 34 17 5 -3 8 0 7 7 -2 6 3
14 11 17 9 3 11 0 6 -8 -5 -9 -4 -11 4 -6 6 4 9 11 6 16 -3 5 9 19 27 31 18
13 36 27 39 32 4 5 12 6 18 3 6 -4 10 -3 9 2 -2 5 18 33 45 61 26 29 55 63 63
77 9 13 20 22 24 19 5 -3 11 -1 15 5 4 6 10 8 15 5 5 -3 11 -1 14 4 7 11 -13
9 -31 -2 -17 -10 -16 3 1 25 7 10 17 14 21 10 5 -4 5 1 2 10 -3 10 1 24 9 32
8 9 14 17 13 18 -6 10 14 47 23 42 7 -4 8 -2 4 5 -4 6 -2 19 6 28 7 9 11 18 9
20 -1 2 1 16 7 31 6 15 13 36 18 47 4 11 6 29 5 40 -3 17 -1 18 15 5 16 -14
16 -13 5 7 -6 12 -9 35 -7 50 3 15 6 43 8 61 2 23 7 32 20 32 12 0 16 -5 12
-17 -5 -15 -4 -16 5 -3 12 17 5 26 -24 32 -11 3 21 4 72 4 58 -1 89 -5 85 -11
-3 -5 1 -5 9 1 17 13 302 18 294 4 -3 -5 -1 -12 5 -15 6 -4 9 -1 8 6 -2 7 9
14 25 15 18 2 25 -1 21 -8 -5 -7 -2 -8 7 -2 21 13 62 13 78 0 10 -7 13 -8 8 0
-4 7 16 11 64 12 38 1 67 -3 64 -8 -3 -5 -1 -12 5 -15 6 -4 9 -1 8 7 -2 10 23
13 114 14 65 0 115 -3 112 -7 -2 -4 0 -11 6 -14 6 -4 9 -1 8 7 -4 18 329 22
351 5 11 -9 13 -9 8 0 -6 9 18 12 93 11 54 0 97 -4 95 -9 -3 -4 -1 -11 5 -14
6 -4 9 -1 8 7 -4 16 149 20 171 4 11 -8 13 -8 8 1 -5 8 1 11 20 9 16 -1 27 -8
25 -15 -1 -7 2 -10 8 -6 6 3 8 11 5 16 -4 5 3 9 15 9 12 0 19 -4 15 -9 -3 -5
-1 -13 5 -16 6 -4 9 -1 8 7 -2 7 4 13 12 13 8 0 14 -6 12 -13 -1 -8 2 -11 8
-7 6 3 8 11 5 16 -4 5 8 9 25 9 21 0 29 -4 24 -12 -5 -7 -3 -8 7 -2 8 5 32 10
54 11 54 2 61 4 122 34 38 19 55 23 64 15 9 -8 10 -8 5 1 -8 14 23 55 36 47 5
-3 7 -2 6 3 -1 4 9 28 24 53 15 25 30 57 33 72 4 16 11 28 15 28 4 0 6 16 3
36 -3 25 -1 34 6 30 6 -4 11 -2 11 3 0 6 -4 11 -10 11 -5 0 -10 7 -10 16 0 14
2 15 18 3 16 -13 16 -13 2 5 -18 23 -24 170 -6 159 7 -5 7 -2 -1 8 -16 20 -11
142 7 165 14 18 14 18 -3 5 -17 -13 -18 -12 -15 10 2 13 7 30 12 38 6 9 5 12
-1 8 -6 -4 -10 23 -10 73 0 44 3 77 8 75 4 -3 2 8 -4 25 -9 24 -9 35 1 51 8
12 9 18 4 15 -6 -3 -9 29 -9 83 1 58 5 87 12 83 5 -3 5 1 -1 9 -14 18 -15 141
-1 132 6 -4 7 -1 1 8 -5 8 -10 25 -12 38 -3 22 -2 23 15 10 17 -13 17 -13 3 5
-12 16 -15 66 -16 302 0 197 3 281 10 277 6 -4 5 1 -2 10 -17 20 -13 76 7 102
15 18 15 19 -2 6 -16 -13 -18 -12 -15 10 2 13 7 30 12 38 6 9 5 12 -2 7 -7 -4
-10 21 -9 84 1 55 5 90 12 90 5 0 4 4 -3 9 -7 4 14 7 50 7 35 -1 70 1 78 5 29
14 130 30 141 23 8 -4 9 -3 5 4 -5 8 0 12 13 12 11 0 22 4 26 9 3 6 14 8 25 6
12 -2 18 0 16 4 -3 4 31 25 75 47 44 21 85 45 91 52 6 7 20 18 31 24 17 8 19
8 14 -6 -3 -8 -2 -18 2 -20 5 -3 7 5 7 17 -1 12 2 28 7 34 11 15 30 6 21 -9
-4 -7 -2 -8 5 -4 6 4 8 12 5 18 -9 15 55 77 75 71 14 -4 14 -3 1 6 -10 7 -11
14 -5 19 6 4 21 22 34 40 13 19 29 31 37 28 7 -3 16 -1 19 5 4 5 2 8 -3 7 -6
-2 -11 0 -11 5 -2 10 30 71 41 78 5 3 10 9 10 12 0 18 11 47 18 47 4 0 10 12
13 28 3 15 15 58 26 96 11 37 23 87 27 110 3 22 11 44 17 48 8 5 8 8 1 8 -16
0 -17 109 -2 128 10 12 10 14 1 8 -10 -5 -13 3 -13 29 0 26 3 34 13 29 6 -4 9
-4 5 1 -4 4 -2 15 5 24 10 14 10 14 -5 3 -15 -12 -16 -6 -17 63 0 42 3 74 7
71 5 -3 9 1 9 9 0 8 -4 12 -9 9 -4 -3 -8 2 -8 11 0 9 5 13 11 10 6 -4 5 2 -2
13 -11 17 -10 24 2 38 9 11 9 15 2 10 -10 -5 -13 3 -13 29 0 26 3 34 13 29 6
-4 9 -4 5 1 -4 4 -2 15 5 24 10 14 10 14 -5 3 -15 -12 -16 -6 -17 63 0 42 3
74 7 71 5 -3 9 1 9 9 0 8 -4 12 -9 9 -5 -3 -8 18 -6 48 2 37 7 52 16 50 8 -1
11 2 7 8 -3 6 -11 7 -17 4 -7 -5 -9 2 -6 20 3 14 1 26 -5 26 -5 0 -7 14 -5 30
3 17 1 30 -4 30 -4 0 -8 8 -8 18 -1 9 -9 42 -20 72 -13 40 -16 58 -8 68 8 9 7
11 -4 7 -9 -4 -18 1 -22 10 -4 11 -2 14 7 9 6 -4 2 3 -11 15 -12 12 -20 26
-17 32 4 5 1 9 -5 9 -7 0 -9 7 -6 16 3 8 2 13 -3 10 -11 -7 -23 22 -15 35 3 5
2 8 -3 7 -4 -2 -8 0 -8 4 0 4 -10 15 -23 24 -13 9 -21 22 -18 30 3 8 2 13 -3
11 -11 -3 -106 103 -106 119 0 7 -4 16 -8 21 -5 4 -8 4 -7 -2 5 -22 -1 -27
-15 -15 -8 7 -12 17 -8 23 3 6 1 7 -5 3 -6 -4 -20 2 -32 14 -11 11 -24 20 -29
20 -5 0 -11 4 -13 8 -4 9 -153 82 -168 82 -6 0 -9 4 -6 9 3 5 -2 8 -12 7 -10
0 -16 5 -14 14 3 11 0 12 -8 4 -12 -12 -63 -7 -55 6 2 4 -7 6 -21 4 -19 -2
-24 1 -20 12 4 11 2 11 -13 2 -11 -7 -29 -8 -47 -3 -16 5 -46 8 -67 8 -20 -1
-35 2 -32 6 2 5 -2 16 -9 26 -10 14 -15 15 -21 5 -5 -8 -4 -11 2 -7 12 7 25
-17 16 -27 -4 -3 -13 -6 -22 -6 -14 0 -14 2 -1 10 10 6 11 10 3 10 -15 0 -13
50 2 50 6 0 7 3 0 8 -16 11 -19 45 -3 37 10 -6 11 -5 1 6 -17 17 -18 83 -1 73
7 -4 8 -3 4 5 -4 6 -2 20 6 29 12 15 11 16 -4 3 -16 -12 -18 -11 -18 8 0 12 4
20 8 17 4 -2 8 4 8 14 0 10 -3 17 -7 14 -11 -6 -5 419 5 435 6 9 5 12 -1 8 -7
-5 -10 23 -10 82 1 58 5 87 12 83 5 -3 5 1 -1 9 -14 18 -15 141 -1 132 6 -4 7
-1 1 8 -5 8 -10 25 -12 38 -3 22 -2 23 15 10 17 -13 17 -13 3 5 -19 24 -24
243 -6 265 8 11 8 13 0 8 -8 -5 -11 18 -11 82 1 58 5 87 12 83 5 -3 5 1 -2 9
-16 20 -11 142 7 165 14 18 14 18 -3 5 -17 -13 -18 -12 -15 10 2 13 7 30 12
38 6 9 5 12 -1 8 -6 -4 -10 23 -10 73 0 55 3 77 11 73 8 -5 8 -3 0 8 -6 8 -12
39 -13 69 -2 30 -9 73 -17 95 -8 22 -16 44 -17 50 -1 5 -9 15 -17 22 -8 7 -12
13 -8 13 10 0 -63 70 -73 70 -5 0 -12 7 -15 15 -4 8 -10 13 -14 10 -5 -3 -14
0 -22 7 -7 7 -22 14 -33 16 -11 2 -27 6 -35 9 -8 3 -41 5 -73 5 -32 -1 -55 3
-52 8 3 5 1 12 -5 15 -6 4 -9 1 -8 -7 2 -10 -24 -13 -115 -15 -67 -1 -115 2
-112 7 3 5 1 12 -5 15 -6 4 -9 1 -8 -6 4 -17 -71 -20 -91 -5 -11 8 -13 8 -8
-1 5 -8 -1 -11 -20 -9 -16 1 -27 8 -25 15 1 7 -2 10 -8 6 -6 -3 -8 -10 -6 -14
3 -4 -13 -8 -35 -9 -22 -1 -38 2 -34 7 3 5 1 13 -5 16 -6 4 -9 1 -8 -7 2 -10
-47 -13 -254 -15 -142 0 -256 3 -253 7 3 5 1 12 -5 15 -6 4 -9 1 -8 -6 2 -7
-9 -14 -25 -15 -18 -2 -25 1 -21 8 5 7 2 8 -7 2 -21 -13 -62 -13 -78 0 -10 7
-13 8 -8 0 4 -7 -16 -11 -64 -12 -38 -1 -67 3 -64 8 3 5 1 12 -5 15 -6 4 -9 1
-8 -7 2 -10 -23 -13 -114 -14 -65 0 -115 3 -112 7 2 4 0 11 -6 14 -6 4 -9 1
-8 -7 2 -10 -35 -13 -192 -13 l-195 0 -1 46 c0 25 -4 58 -8 73 -4 18 -2 34 6
44 9 11 9 14 1 9 -15 -9 -29 35 -17 55 4 7 3 9 -1 5 -11 -9 -37 72 -28 87 3 6
3 8 -2 4 -8 -8 -47 65 -48 90 0 6 -3 12 -6 12 -3 0 -17 21 -31 48 -14 26 -30
52 -36 57 -33 31 -92 113 -86 120 4 5 2 5 -4 2 -6 -4 -30 11 -53 32 -22 21
-41 35 -41 32 0 -3 -6 1 -13 9 -7 8 -26 23 -42 32 -17 10 -29 22 -27 28 1 7
-2 9 -8 5 -14 -9 -52 4 -45 16 3 5 -1 6 -9 3 -9 -3 -16 -1 -16 5 0 6 -3 10 -7
9 -5 -1 -33 7 -64 19 -31 12 -73 25 -93 29 -21 4 -33 10 -26 14 6 4 -8 6 -32
6 -32 -1 -42 3 -40 13 2 11 0 12 -10 3 -18 -14 -338 -13 -357 2 -11 8 -13 8
-8 0 9 -16 -252 -15 -272 0 -11 8 -13 8 -8 0z"/>
<path d="M4575 9540 c-3 -5 -1 -10 4 -10 6 0 11 5 11 10 0 6 -2 10 -4 10 -3 0
-8 -4 -11 -10z"/>
<path d="M4240 9414 c-11 -12 -10 -18 5 -32 18 -16 18 -16 6 0 -14 19 -6 42
11 32 7 -4 8 -2 4 4 -9 15 -11 15 -26 -4z"/>
<path d="M6016 9382 c-2 -4 -1 -14 4 -22 7 -11 9 -9 7 8 -1 24 -3 26 -11 14z"/>
<path d="M6056 9342 c-2 -4 -1 -14 4 -22 7 -11 9 -9 7 8 -1 24 -3 26 -11 14z"/>
<path d="M6133 9250 c-1 -11 2 -22 6 -24 4 -3 7 4 6 14 -2 27 -10 33 -12 10z"/>
<path d="M6216 9138 c3 -5 10 -6 15 -3 13 9 11 12 -6 12 -8 0 -12 -4 -9 -9z"/>
<path d="M3950 9099 c0 -5 5 -7 10 -4 6 3 10 8 10 11 0 2 -4 4 -10 4 -5 0 -10
-5 -10 -11z"/>
<path d="M6295 9069 c-4 -6 -5 -12 -2 -15 2 -3 7 2 10 11 7 17 1 20 -8 4z"/>
<path d="M6296 8993 c-6 -14 -5 -15 5 -6 7 7 10 15 7 18 -3 3 -9 -2 -12 -12z"/>
<path d="M6350 8986 c0 -2 7 -7 16 -10 8 -3 12 -2 9 4 -6 10 -25 14 -25 6z"/>
<path d="M6316 8962 c-3 -5 1 -9 9 -9 8 0 12 4 9 9 -3 4 -7 8 -9 8 -2 0 -6 -4
-9 -8z"/>
<path d="M3896 8942 c-3 -5 1 -9 9 -9 8 0 12 4 9 9 -3 4 -7 8 -9 8 -2 0 -6 -4
-9 -8z"/>
<path d="M6314 8929 c-3 -6 2 -18 12 -27 17 -16 17 -16 5 0 -7 9 -10 22 -6 28
3 5 4 10 1 10 -3 0 -8 -5 -12 -11z"/>
<path d="M3875 8880 c3 -5 8 -10 11 -10 2 0 4 5 4 10 0 6 -5 10 -11 10 -5 0
-7 -4 -4 -10z"/>
<path d="M6335 8840 c3 -5 8 -10 11 -10 2 0 4 5 4 10 0 6 -5 10 -11 10 -5 0
-7 -4 -4 -10z"/>
<path d="M3816 8782 c-2 -4 -1 -14 4 -22 7 -11 9 -9 7 8 -1 24 -3 26 -11 14z"/>
<path d="M6356 8714 c-8 -20 -8 -24 2 -24 4 0 8 9 9 20 2 24 -3 26 -11 4z"/>
<path d="M3855 8675 c0 -13 3 -21 8 -18 4 2 7 10 7 18 0 8 -3 16 -7 18 -5 3
-8 -5 -8 -18z"/>
<path d="M2355 8681 c-3 -5 -2 -12 3 -15 5 -3 9 1 9 9 0 17 -3 19 -12 6z"/>
<path d="M3315 8681 c-3 -5 -2 -12 3 -15 5 -3 9 1 9 9 0 17 -3 19 -12 6z"/>
<path d="M6386 8678 c3 -5 10 -6 15 -3 13 9 11 12 -6 12 -8 0 -12 -4 -9 -9z"/>
<path d="M6450 8680 c0 -5 5 -10 11 -10 5 0 7 5 4 10 -3 6 -8 10 -11 10 -2 0
-4 -4 -4 -10z"/>
<path d="M6835 8681 c-3 -5 -2 -12 3 -15 5 -3 9 1 9 9 0 17 -3 19 -12 6z"/>
<path d="M2575 8660 c-3 -5 -1 -10 4 -10 6 0 11 5 11 10 0 6 -2 10 -4 10 -3 0
-8 -4 -11 -10z"/>
<path d="M2815 8660 c-3 -5 -1 -10 4 -10 6 0 11 5 11 10 0 6 -2 10 -4 10 -3 0
-8 -4 -11 -10z"/>
<path d="M3570 8660 c0 -5 5 -10 11 -10 5 0 7 5 4 10 -3 6 -8 10 -11 10 -2 0
-4 -4 -4 -10z"/>
<path d="M6377 8659 c7 -7 15 -10 18 -7 3 3 -2 9 -12 12 -14 6 -15 5 -6 -5z"/>
<path d="M7055 8660 c-3 -5 -1 -10 4 -10 6 0 11 5 11 10 0 6 -2 10 -4 10 -3 0
-8 -4 -11 -10z"/>
<path d="M7295 8660 c-3 -5 -1 -10 4 -10 6 0 11 5 11 10 0 6 -2 10 -4 10 -3 0
-8 -4 -11 -10z"/>
<path d="M8055 8660 c-3 -5 -1 -10 4 -10 6 0 11 5 11 10 0 6 -2 10 -4 10 -3 0
-8 -4 -11 -10z"/>
<path d="M1719 8613 c-12 -16 -12 -17 2 -6 9 7 20 9 24 5 5 -4 5 -1 1 6 -9 16
-11 15 -27 -5z"/>
<path d="M8576 8547 c3 -10 9 -15 12 -12 3 3 0 11 -7 18 -10 9 -11 8 -5 -6z"/>
<path d="M8695 8300 c-3 -5 -1 -10 4 -10 6 0 11 5 11 10 0 6 -2 10 -4 10 -3 0
-8 -4 -11 -10z"/>
<path d="M1535 8220 c3 -5 8 -10 11 -10 2 0 4 5 4 10 0 6 -5 10 -11 10 -5 0
-7 -4 -4 -10z"/>
<path d="M8662 8204 c10 -10 20 -16 22 -13 3 3 -5 11 -17 18 -21 13 -21 12 -5
-5z"/>
<path d="M1569 8163 c-13 -16 -12 -17 4 -4 9 7 17 15 17 17 0 8 -8 3 -21 -13z"/>
<path d="M8661 8161 c-10 -7 -7 -9 12 -8 14 1 23 5 20 10 -6 9 -15 9 -32 -2z"/>
<path d="M1536 8098 c3 -5 10 -6 15 -3 13 9 11 12 -6 12 -8 0 -12 -4 -9 -9z"/>
<path d="M1555 8081 c-3 -5 -2 -12 3 -15 5 -3 9 1 9 9 0 17 -3 19 -12 6z"/>
<path d="M8695 8041 c-3 -5 -2 -12 3 -15 5 -3 9 1 9 9 0 17 -3 19 -12 6z"/>
<path d="M8690 7980 c0 -5 5 -10 11 -10 5 0 7 5 4 10 -3 6 -8 10 -11 10 -2 0
-4 -4 -4 -10z"/>
<path d="M1560 7940 c-9 -6 -10 -10 -3 -10 6 0 15 5 18 10 8 12 4 12 -15 0z"/>
<path d="M8673 7943 c4 -3 -1 -16 -10 -27 -18 -21 -18 -21 4 -2 20 16 23 36 6
36 -4 0 -3 -3 0 -7z"/>
<path d="M1486 7878 c3 -5 10 -6 15 -3 13 9 11 12 -6 12 -8 0 -12 -4 -9 -9z"/>
<path d="M8670 7879 c0 -5 5 -7 10 -4 6 3 10 8 10 11 0 2 -4 4 -10 4 -5 0 -10
-5 -10 -11z"/>
<path d="M1560 7860 c-9 -6 -10 -10 -3 -10 6 0 15 5 18 10 8 12 4 12 -15 0z"/>
<path d="M1550 7826 c0 -2 7 -7 16 -10 8 -3 12 -2 9 4 -6 10 -25 14 -25 6z"/>
<path d="M1535 7780 c-3 -5 -1 -10 4 -10 6 0 11 5 11 10 0 6 -2 10 -4 10 -3 0
-8 -4 -11 -10z"/>
<path d="M8690 7779 c0 -5 5 -7 10 -4 6 3 10 8 10 11 0 2 -4 4 -10 4 -5 0 -10
-5 -10 -11z"/>
<path d="M1550 7746 c0 -2 7 -7 16 -10 8 -3 12 -2 9 4 -6 10 -25 14 -25 6z"/>
<path d="M8656 7733 c-6 -14 -5 -15 5 -6 7 7 10 15 7 18 -3 3 -9 -2 -12 -12z"/>
<path d="M8695 7731 c-3 -5 -2 -12 3 -15 5 -3 9 1 9 9 0 17 -3 19 -12 6z"/>
<path d="M8709 7603 c-13 -16 -12 -17 4 -4 16 13 21 21 13 21 -2 0 -10 -8 -17
-17z"/>
<path d="M8660 7466 c0 -2 8 -10 18 -17 15 -13 16 -12 3 4 -13 16 -21 21 -21
13z"/>
<path d="M8695 7420 c-3 -5 -1 -10 4 -10 6 0 11 5 11 10 0 6 -2 10 -4 10 -3 0
-8 -4 -11 -10z"/>
<path d="M1540 7406 c0 -2 8 -10 18 -17 15 -13 16 -12 3 4 -13 16 -21 21 -21
13z"/>
<path d="M8690 7340 c0 -5 5 -10 11 -10 5 0 7 5 4 10 -3 6 -8 10 -11 10 -2 0
-4 -4 -4 -10z"/>
<path d="M1516 7318 c3 -5 10 -6 15 -3 13 9 11 12 -6 12 -8 0 -12 -4 -9 -9z"/>
<path d="M8673 7303 c4 -3 -1 -16 -10 -27 -18 -21 -18 -21 4 -2 20 16 23 36 6
36 -4 0 -3 -3 0 -7z"/>
<path d="M8670 7239 c0 -5 5 -7 10 -4 6 3 10 8 10 11 0 2 -4 4 -10 4 -5 0 -10
-5 -10 -11z"/>
<path d="M8690 7139 c0 -5 5 -7 10 -4 6 3 10 8 10 11 0 2 -4 4 -10 4 -5 0 -10
-5 -10 -11z"/>
<path d="M8656 7093 c-6 -14 -5 -15 5 -6 7 7 10 15 7 18 -3 3 -9 -2 -12 -12z"/>
<path d="M8695 7091 c-3 -5 -2 -12 3 -15 5 -3 9 1 9 9 0 17 -3 19 -12 6z"/>
<path d="M8693 7025 c0 -8 4 -12 9 -9 5 3 6 10 3 15 -9 13 -12 11 -12 -6z"/>
<path d="M8665 6940 c-3 -6 1 -7 9 -4 18 7 21 14 7 14 -6 0 -13 -4 -16 -10z"/>
<path d="M8693 6895 c0 -8 4 -12 9 -9 5 3 6 10 3 15 -9 13 -12 11 -12 -6z"/>
<path d="M8656 6793 c-6 -14 -5 -15 5 -6 7 7 10 15 7 18 -3 3 -9 -2 -12 -12z"/>
<path d="M8690 6801 c0 -6 4 -13 10 -16 6 -3 7 1 4 9 -7 18 -14 21 -14 7z"/>
<path d="M1540 6766 c0 -2 8 -10 18 -17 15 -13 16 -12 3 4 -13 16 -21 21 -21
13z"/>
<path d="M8653 6753 c0 -9 4 -10 14 -2 7 6 13 12 13 14 0 1 -6 2 -13 2 -8 0
-14 -6 -14 -14z"/>
<path d="M1516 6678 c3 -5 10 -6 15 -3 13 9 11 12 -6 12 -8 0 -12 -4 -9 -9z"/>
<path d="M8686 6498 c3 -5 10 -6 15 -3 13 9 11 12 -6 12 -8 0 -12 -4 -9 -9z"/>
<path d="M8650 6496 c0 -2 8 -10 18 -17 15 -13 16 -12 3 4 -13 16 -21 21 -21
13z"/>
<path d="M8676 6422 c-3 -5 1 -9 9 -9 8 0 12 4 9 9 -3 4 -7 8 -9 8 -2 0 -6 -4
-9 -8z"/>
<path d="M9055 6280 c-3 -5 -1 -10 4 -10 6 0 11 5 11 10 0 6 -2 10 -4 10 -3 0
-8 -4 -11 -10z"/>
<path d="M1515 6240 c-3 -5 -1 -10 4 -10 6 0 11 5 11 10 0 6 -2 10 -4 10 -3 0
-8 -4 -11 -10z"/>
<path d="M1550 6243 c0 -6 8 -17 18 -24 16 -13 16 -13 2 6 -8 11 -16 22 -17
24 -2 2 -3 0 -3 -6z"/>
<path d="M9180 6220 c-9 -6 -10 -10 -3 -10 6 0 15 5 18 10 8 12 4 12 -15 0z"/>
<path d="M1560 6175 c-7 -9 -11 -17 -9 -20 3 -2 10 5 17 15 14 24 10 26 -8 5z"/>
<path d="M9210 6180 c0 -5 5 -10 11 -10 5 0 7 5 4 10 -3 6 -8 10 -11 10 -2 0
-4 -4 -4 -10z"/>
<path d="M9295 6100 c3 -5 8 -10 11 -10 2 0 4 5 4 10 0 6 -5 10 -11 10 -5 0
-7 -4 -4 -10z"/>
<path d="M9335 6060 c3 -5 8 -10 11 -10 2 0 4 5 4 10 0 6 -5 10 -11 10 -5 0
-7 -4 -4 -10z"/>
<path d="M1516 5993 c-6 -14 -5 -15 5 -6 7 7 10 15 7 18 -3 3 -9 -2 -12 -12z"/>
<path d="M1550 6003 c0 -6 8 -17 18 -24 16 -13 16 -13 2 6 -8 11 -16 22 -17
24 -2 2 -3 0 -3 -6z"/>
<path d="M9455 5940 c-3 -5 -1 -10 4 -10 6 0 11 5 11 10 0 6 -2 10 -4 10 -3 0
-8 -4 -11 -10z"/>
<path d="M1549 5923 c-13 -16 -12 -17 4 -4 9 7 17 15 17 17 0 8 -8 3 -21 -13z"/>
<path d="M1510 5919 c0 -5 5 -7 10 -4 6 3 10 8 10 11 0 2 -4 4 -10 4 -5 0 -10
-5 -10 -11z"/>
<path d="M1559 5833 c-13 -16 -12 -17 4 -4 9 7 17 15 17 17 0 8 -8 3 -21 -13z"/>
<path d="M9500 5766 c0 -2 8 -10 18 -17 15 -13 16 -12 3 4 -13 16 -21 21 -21
13z"/>
<path d="M9526 5718 c3 -5 10 -6 15 -3 13 9 11 12 -6 12 -8 0 -12 -4 -9 -9z"/>
<path d="M9535 5689 c-4 -6 -5 -12 -2 -15 2 -3 7 2 10 11 7 17 1 20 -8 4z"/>
<path d="M1810 5656 c0 -2 8 -10 18 -17 15 -13 16 -12 3 4 -13 16 -21 21 -21
13z"/>
<path d="M9559 5613 c-12 -16 -12 -17 2 -6 9 7 20 9 24 5 5 -4 5 -1 1 6 -9 16
-11 15 -27 -5z"/>
<path d="M2030 5560 c0 -5 5 -10 11 -10 5 0 7 5 4 10 -3 6 -8 10 -11 10 -2 0
-4 -4 -4 -10z"/>
<path d="M2135 5460 c3 -5 8 -10 11 -10 2 0 4 5 4 10 0 6 -5 10 -11 10 -5 0
-7 -4 -4 -10z"/>
<path d="M2176 5402 c-3 -5 1 -9 9 -9 8 0 12 4 9 9 -3 4 -7 8 -9 8 -2 0 -6 -4
-9 -8z"/>
<path d="M9573 5355 c0 -8 4 -12 9 -9 4 3 8 9 8 15 0 5 -4 9 -8 9 -5 0 -9 -7
-9 -15z"/>
<path d="M2313 5289 c-2 -23 3 -25 10 -4 4 8 3 16 -1 19 -4 3 -9 -4 -9 -15z"/>
<path d="M2382 5164 c10 -10 20 -16 22 -13 3 3 -5 11 -17 18 -21 13 -21 12 -5
-5z"/>
<path d="M2398 5133 c7 -3 16 -2 19 1 4 3 -2 6 -13 5 -11 0 -14 -3 -6 -6z"/>
<path d="M2395 5102 c3 -3 0 -10 -5 -17 -7 -8 -5 -12 5 -12 8 0 13 3 10 5 -3
3 0 10 5 17 7 8 5 12 -5 12 -8 0 -13 -3 -10 -5z"/>
<path d="M2306 5042 c-3 -5 1 -9 9 -9 8 0 12 4 9 9 -3 4 -7 8 -9 8 -2 0 -6 -4
-9 -8z"/>
<path d="M9573 5035 c0 -8 4 -12 9 -9 4 3 8 9 8 15 0 5 -4 9 -8 9 -5 0 -9 -7
-9 -15z"/>
<path d="M2313 5005 c0 -8 4 -12 9 -9 5 3 6 10 3 15 -9 13 -12 11 -12 -6z"/>
<path d="M2339 4993 c-13 -16 -12 -17 4 -4 9 7 17 15 17 17 0 8 -8 3 -21 -13z"/>
<path d="M9600 4920 c-9 -6 -10 -10 -3 -10 6 0 15 5 18 10 8 12 4 12 -15 0z"/>
<path d="M2224 4838 c-12 -14 -13 -18 -3 -10 9 6 18 10 21 7 2 -3 5 2 5 10 0
19 0 19 -23 -7z"/>
<path d="M2170 4779 c0 -5 5 -7 10 -4 6 3 10 8 10 11 0 2 -4 4 -10 4 -5 0 -10
-5 -10 -11z"/>
<path d="M2096 4762 c-3 -5 1 -9 9 -9 8 0 12 4 9 9 -3 4 -7 8 -9 8 -2 0 -6 -4
-9 -8z"/>
<path d="M2056 4742 c-2 -4 -1 -14 4 -22 7 -11 9 -9 7 8 -1 24 -3 26 -11 14z"/>
<path d="M9599 4748 c-5 -18 -6 -38 -1 -34 7 8 12 36 6 36 -2 0 -4 -1 -5 -2z"/>
<path d="M2115 4730 c-3 -6 1 -7 9 -4 18 7 21 14 7 14 -6 0 -13 -4 -16 -10z"/>
<path d="M1945 4640 c-3 -6 1 -7 9 -4 18 7 21 14 7 14 -6 0 -13 -4 -16 -10z"/>
<path d="M9550 4619 c0 -5 5 -7 10 -4 6 3 10 8 10 11 0 2 -4 4 -10 4 -5 0 -10
-5 -10 -11z"/>
<path d="M9520 4526 c0 -2 7 -7 16 -10 8 -3 12 -2 9 4 -6 10 -25 14 -25 6z"/>
<path d="M9520 4400 c-9 -6 -10 -10 -3 -10 6 0 15 5 18 10 8 12 4 12 -15 0z"/>
<path d="M9443 4338 c-11 -19 -13 -39 -1 -32 5 3 7 9 4 12 -3 3 -1 11 5 19 6
7 9 13 6 13 -3 0 -9 -6 -14 -12z"/>
<path d="M1507 4319 c7 -7 15 -10 18 -7 3 3 -2 9 -12 12 -14 6 -15 5 -6 -5z"/>
<path d="M1555 4310 c10 -11 20 -20 23 -20 3 0 -3 9 -13 20 -10 11 -20 20 -23
20 -3 0 3 -9 13 -20z"/>
<path d="M1560 4255 c-7 -9 -11 -17 -9 -20 3 -2 10 5 17 15 14 24 10 26 -8 5z"/>
<path d="M9373 4183 c4 -3 1 -13 -6 -22 -11 -14 -10 -14 5 -2 16 12 16 31 1
31 -4 0 -3 -3 0 -7z"/>
<path d="M1486 4118 c3 -5 10 -6 15 -3 13 9 11 12 -6 12 -8 0 -12 -4 -9 -9z"/>
<path d="M9290 4106 c0 -2 7 -7 16 -10 8 -3 12 -2 9 4 -6 10 -25 14 -25 6z"/>
<path d="M1535 4060 c3 -5 8 -10 11 -10 2 0 4 5 4 10 0 6 -5 10 -11 10 -5 0
-7 -4 -4 -10z"/>
<path d="M1569 4003 c-13 -16 -12 -17 4 -4 9 7 17 15 17 17 0 8 -8 3 -21 -13z"/>
<path d="M9090 3980 c0 -5 5 -10 11 -10 5 0 7 5 4 10 -3 6 -8 10 -11 10 -2 0
-4 -4 -4 -10z"/>
<path d="M1536 3938 c3 -5 10 -6 15 -3 13 9 11 12 -6 12 -8 0 -12 -4 -9 -9z"/>
<path d="M1555 3921 c-3 -5 -2 -12 3 -15 5 -3 9 1 9 9 0 17 -3 19 -12 6z"/>
<path d="M8670 3871 c0 -5 7 -12 16 -15 14 -5 15 -4 4 9 -14 17 -20 19 -20 6z"/>
<path d="M8713 3865 c0 -8 4 -12 9 -9 5 3 6 10 3 15 -9 13 -12 11 -12 -6z"/>
<path d="M8655 3801 c-3 -5 -2 -12 3 -15 5 -3 9 1 9 9 0 17 -3 19 -12 6z"/>
<path d="M8656 3753 c-6 -14 -5 -15 5 -6 7 7 10 15 7 18 -3 3 -9 -2 -12 -12z"/>
<path d="M8662 3564 c10 -10 20 -16 22 -13 3 3 -5 11 -17 18 -21 13 -21 12 -5
-5z"/>
<path d="M1540 3566 c0 -2 8 -10 18 -17 15 -13 16 -12 3 4 -13 16 -21 21 -21
13z"/>
<path d="M8690 3499 c0 -5 5 -7 10 -4 6 3 10 8 10 11 0 2 -4 4 -10 4 -5 0 -10
-5 -10 -11z"/>
<path d="M1516 3478 c3 -5 10 -6 15 -3 13 9 11 12 -6 12 -8 0 -12 -4 -9 -9z"/>
<path d="M8665 3420 c-3 -6 1 -7 9 -4 18 7 21 14 7 14 -6 0 -13 -4 -16 -10z"/>
<path d="M8716 3333 c-6 -14 -5 -15 5 -6 7 7 10 15 7 18 -3 3 -9 -2 -12 -12z"/>
<path d="M8650 3336 c0 -2 8 -10 18 -17 15 -13 16 -12 3 4 -13 16 -21 21 -21
13z"/>
<path d="M8656 3273 c-6 -14 -5 -15 5 -6 7 7 10 15 7 18 -3 3 -9 -2 -12 -12z"/>
<path d="M8690 3281 c0 -6 4 -13 10 -16 6 -3 7 1 4 9 -7 18 -14 21 -14 7z"/>
<path d="M8653 3233 c0 -9 4 -10 14 -2 7 6 13 12 13 14 0 1 -6 2 -13 2 -8 0
-14 -6 -14 -14z"/>
<path d="M8709 3123 c-13 -16 -12 -17 4 -4 16 13 21 21 13 21 -2 0 -10 -8 -17
-17z"/>
<path d="M8660 2986 c0 -2 8 -10 18 -17 15 -13 16 -12 3 4 -13 16 -21 21 -21
13z"/>
<path d="M8695 2940 c-3 -5 -1 -10 4 -10 6 0 11 5 11 10 0 6 -2 10 -4 10 -3 0
-8 -4 -11 -10z"/>
<path d="M1540 2926 c0 -2 8 -10 18 -17 15 -13 16 -12 3 4 -13 16 -21 21 -21
13z"/>
<path d="M8690 2860 c0 -5 5 -10 11 -10 5 0 7 5 4 10 -3 6 -8 10 -11 10 -2 0
-4 -4 -4 -10z"/>
<path d="M1516 2838 c3 -5 10 -6 15 -3 13 9 11 12 -6 12 -8 0 -12 -4 -9 -9z"/>
<path d="M8673 2823 c4 -3 -1 -16 -10 -27 -18 -21 -18 -21 4 -2 20 16 23 36 6
36 -4 0 -3 -3 0 -7z"/>
<path d="M8670 2759 c0 -5 5 -7 10 -4 6 3 10 8 10 11 0 2 -4 4 -10 4 -5 0 -10
-5 -10 -11z"/>
<path d="M8690 2659 c0 -5 5 -7 10 -4 6 3 10 8 10 11 0 2 -4 4 -10 4 -5 0 -10
-5 -10 -11z"/>
<path d="M8656 2613 c-6 -14 -5 -15 5 -6 7 7 10 15 7 18 -3 3 -9 -2 -12 -12z"/>
<path d="M8695 2611 c-3 -5 -2 -12 3 -15 5 -3 9 1 9 9 0 17 -3 19 -12 6z"/>
<path d="M1560 2500 c-9 -6 -10 -10 -3 -10 6 0 15 5 18 10 8 12 4 12 -15 0z"/>
<path d="M8690 2461 c0 -6 4 -13 10 -16 6 -3 7 1 4 9 -7 18 -14 21 -14 7z"/>
<path d="M8662 2444 c10 -10 20 -16 22 -13 3 3 -5 11 -17 18 -21 13 -21 12 -5
-5z"/>
<path d="M1486 2438 c3 -5 10 -6 15 -3 13 9 11 12 -6 12 -8 0 -12 -4 -9 -9z"/>
<path d="M1560 2420 c-9 -6 -10 -10 -3 -10 6 0 15 5 18 10 8 12 4 12 -15 0z"/>
<path d="M8661 2401 c-10 -7 -7 -9 12 -8 14 1 23 5 20 10 -6 9 -15 9 -32 -2z"/>
<path d="M1550 2386 c0 -2 7 -7 16 -10 8 -3 12 -2 9 4 -6 10 -25 14 -25 6z"/>
<path d="M1535 2340 c-3 -5 -1 -10 4 -10 6 0 11 5 11 10 0 6 -2 10 -4 10 -3 0
-8 -4 -11 -10z"/>
<path d="M1550 2306 c0 -2 7 -7 16 -10 8 -3 12 -2 9 4 -6 10 -25 14 -25 6z"/>
<path d="M8695 2281 c-3 -5 -2 -12 3 -15 5 -3 9 1 9 9 0 17 -3 19 -12 6z"/>
<path d="M1460 2226 c0 -2 8 -10 18 -17 15 -13 16 -12 3 4 -13 16 -21 21 -21
13z"/>
<path d="M8690 2220 c0 -5 5 -10 11 -10 5 0 7 5 4 10 -3 6 -8 10 -11 10 -2 0
-4 -4 -4 -10z"/>
<path d="M1540 2206 c0 -2 8 -10 18 -17 15 -13 16 -12 3 4 -13 16 -21 21 -21
13z"/>
<path d="M8673 2183 c4 -3 -1 -16 -10 -27 -18 -21 -18 -21 4 -2 20 16 23 36 6
36 -4 0 -3 -3 0 -7z"/>
<path d="M8670 2119 c0 -5 5 -7 10 -4 6 3 10 8 10 11 0 2 -4 4 -10 4 -5 0 -10
-5 -10 -11z"/>
<path d="M8693 2029 c-2 -23 3 -25 10 -4 4 8 3 16 -1 19 -4 3 -9 -4 -9 -15z"/>
<path d="M8656 2027 c3 -10 9 -15 12 -12 3 3 0 11 -7 18 -10 9 -11 8 -5 -6z"/>
<path d="M1535 2020 c3 -5 8 -10 11 -10 2 0 4 5 4 10 0 6 -5 10 -11 10 -5 0
-7 -4 -4 -10z"/>
<path d="M8660 1986 c0 -2 8 -10 18 -17 15 -13 16 -12 3 4 -13 16 -21 21 -21
13z"/>
<path d="M8695 1940 c-3 -5 -1 -10 4 -10 6 0 11 5 11 10 0 6 -2 10 -4 10 -3 0
-8 -4 -11 -10z"/>
<path d="M8650 1897 c0 -2 6 -10 14 -16 11 -9 16 -9 22 1 4 7 4 10 -1 6 -4 -4
-14 -3 -22 3 -7 6 -13 9 -13 6z"/>
<path d="M1596 1807 c3 -10 9 -15 12 -12 3 3 0 11 -7 18 -10 9 -11 8 -5 -6z"/>
<path d="M2290 1579 c0 -5 5 -7 10 -4 6 3 10 8 10 11 0 2 -4 4 -10 4 -5 0 -10
-5 -10 -11z"/>
<path d="M2530 1579 c0 -5 5 -7 10 -4 6 3 10 8 10 11 0 2 -4 4 -10 4 -5 0 -10
-5 -10 -11z"/>
<path d="M3250 1579 c0 -5 5 -7 10 -4 6 3 10 8 10 11 0 2 -4 4 -10 4 -5 0 -10
-5 -10 -11z"/>
<path d="M3490 1579 c0 -5 5 -7 10 -4 6 3 10 8 10 11 0 2 -4 4 -10 4 -5 0 -10
-5 -10 -11z"/>
<path d="M3839 1572 c-13 -16 -13 -16 5 -2 18 14 19 13 14 -8 -4 -12 -2 -20 3
-16 12 7 12 31 0 38 -5 3 -15 -2 -22 -12z"/>
<path d="M6770 1579 c0 -5 5 -7 10 -4 6 3 10 8 10 11 0 2 -4 4 -10 4 -5 0 -10
-5 -10 -11z"/>
<path d="M7010 1579 c0 -5 5 -7 10 -4 6 3 10 8 10 11 0 2 -4 4 -10 4 -5 0 -10
-5 -10 -11z"/>
<path d="M8393 1575 c0 -8 4 -12 9 -9 5 3 6 10 3 15 -9 13 -12 11 -12 -6z"/>
<path d="M2753 1565 c0 -8 4 -12 9 -9 5 3 6 10 3 15 -9 13 -12 11 -12 -6z"/>
<path d="M6453 1565 c0 -8 4 -12 9 -9 5 3 6 10 3 15 -9 13 -12 11 -12 -6z"/>
<path d="M7233 1565 c0 -8 4 -12 9 -9 5 3 6 10 3 15 -9 13 -12 11 -12 -6z"/>
<path d="M3750 1559 c0 -5 5 -7 10 -4 6 3 10 8 10 11 0 2 -4 4 -10 4 -5 0 -10
-5 -10 -11z"/>
<path d="M7735 1561 c-3 -5 -2 -12 3 -15 5 -3 9 1 9 9 0 17 -3 19 -12 6z"/>
<path d="M3875 1520 c3 -5 8 -10 11 -10 2 0 4 5 4 10 0 6 -5 10 -11 10 -5 0
-7 -4 -4 -10z"/>
<path d="M6396 1487 c3 -10 9 -15 12 -12 3 3 0 11 -7 18 -10 9 -11 8 -5 -6z"/>
<path d="M3880 1480 c-9 -6 -10 -10 -3 -10 6 0 15 5 18 10 8 12 4 12 -15 0z"/>
<path d="M6399 1413 c-13 -16 -12 -17 4 -4 16 13 21 21 13 21 -2 0 -10 -8 -17
-17z"/>
<path d="M3880 1406 c0 -2 8 -10 18 -17 15 -13 16 -12 3 4 -13 16 -21 21 -21
13z"/>
<path d="M3846 1342 c-3 -5 1 -9 9 -9 8 0 12 4 9 9 -3 4 -7 8 -9 8 -2 0 -6 -4
-9 -8z"/>
<path d="M6314 1328 c-19 -23 -19 -23 2 -5 11 9 24 14 29 10 4 -5 5 -2 1 5 -9
16 -10 16 -32 -10z"/>
<path d="M3910 1306 c0 -2 7 -7 16 -10 8 -3 12 -2 9 4 -6 10 -25 14 -25 6z"/>
<path d="M6326 1298 c3 -5 10 -6 15 -3 13 9 11 12 -6 12 -8 0 -12 -4 -9 -9z"/>
<path d="M3896 1262 c-2 -4 -1 -14 4 -22 7 -11 9 -9 7 8 -1 24 -3 26 -11 14z"/>
<path d="M3935 1240 c3 -5 8 -10 11 -10 2 0 4 5 4 10 0 6 -5 10 -11 10 -5 0
-7 -4 -4 -10z"/>
<path d="M3936 1182 c-3 -5 1 -9 9 -9 8 0 12 4 9 9 -3 4 -7 8 -9 8 -2 0 -6 -4
-9 -8z"/>
<path d="M3975 1140 c-3 -5 -1 -10 4 -10 6 0 11 5 11 10 0 6 -2 10 -4 10 -3 0
-8 -4 -11 -10z"/>
<path d="M4010 1140 c0 -5 5 -10 11 -10 5 0 7 5 4 10 -3 6 -8 10 -11 10 -2 0
-4 -4 -4 -10z"/>
<path d="M3966 1098 c3 -5 10 -6 15 -3 13 9 11 12 -6 12 -8 0 -12 -4 -9 -9z"/>
<path d="M4015 1059 c-3 -4 2 -6 10 -5 21 3 28 13 10 13 -9 0 -18 -4 -20 -8z"/>
<path d="M4055 1020 c3 -5 8 -10 11 -10 2 0 4 5 4 10 0 6 -5 10 -11 10 -5 0
-7 -4 -4 -10z"/>
<path d="M4095 1000 c3 -5 8 -10 11 -10 2 0 4 5 4 10 0 6 -5 10 -11 10 -5 0
-7 -4 -4 -10z"/>
<path d="M6115 980 c-3 -5 -1 -10 4 -10 6 0 11 5 11 10 0 6 -2 10 -4 10 -3 0
-8 -4 -11 -10z"/>
<path d="M4116 967 c3 -10 9 -15 12 -12 3 3 0 11 -7 18 -10 9 -11 8 -5 -6z"/>
<path d="M4153 955 c0 -8 4 -12 9 -9 5 3 6 10 3 15 -9 13 -12 11 -12 -6z"/>
<path d="M6010 899 c0 -5 5 -7 10 -4 6 3 10 8 10 11 0 2 -4 4 -10 4 -5 0 -10
-5 -10 -11z"/>
<path d="M4230 897 c0 -2 6 -10 14 -16 11 -9 16 -9 22 1 4 7 4 10 -1 6 -4 -4
-14 -3 -22 3 -7 6 -13 9 -13 6z"/>
<path d="M4415 780 c-3 -5 -1 -10 4 -10 6 0 11 5 11 10 0 6 -2 10 -4 10 -3 0
-8 -4 -11 -10z"/>
<path d="M5750 761 c0 -6 4 -13 10 -16 6 -3 7 1 4 9 -7 18 -14 21 -14 7z"/>
<path d="M5695 740 c3 -5 8 -10 11 -10 2 0 4 5 4 10 0 6 -5 10 -11 10 -5 0 -7
-4 -4 -10z"/>
<path d="M4810 706 c0 -2 7 -7 16 -10 8 -3 12 -2 9 4 -6 10 -25 14 -25 6z"/>
<path d="M4935 700 c-3 -5 -1 -10 4 -10 6 0 11 5 11 10 0 6 -2 10 -4 10 -3 0
-8 -4 -11 -10z"/>
<path d="M5065 700 c-3 -6 1 -7 9 -4 18 7 21 14 7 14 -6 0 -13 -4 -16 -10z"/>
<path d="M5119 693 c-13 -17 -13 -17 6 -3 11 8 22 16 24 17 2 2 0 3 -6 3 -6 0
-17 -8 -24 -17z"/>
<path d="M5171 707 c2 -1 13 -9 24 -17 19 -14 19 -14 6 3 -7 9 -18 17 -24 17
-6 0 -8 -1 -6 -3z"/>
<path d="M5264 698 c-3 -4 5 -5 17 -3 30 6 36 14 9 12 -12 -1 -24 -5 -26 -9z"/>
</g>
</svg>
